# Blender 4.1.1
# www.blender.org
mtllib torus-9x5q.mtl
o Torus.001
v 1.300000 0.000000 0.000000
v 1.092705 0.285317 -0.000000
v 0.757295 0.176336 -0.000000
v 0.757295 -0.176336 0.000000
v 1.092705 -0.285317 0.000000
v 0.995858 -0.000000 -0.835624
v 0.837061 0.285317 -0.702377
v 0.580122 0.176336 -0.486780
v 0.580122 -0.176336 -0.486780
v 0.837061 -0.285317 -0.702377
v 0.225743 -0.000000 -1.280250
v 0.189746 0.285317 -1.076104
v 0.131503 0.176336 -0.745790
v 0.131503 -0.176336 -0.745790
v 0.189746 -0.285317 -1.076104
v -0.650000 -0.000000 -1.125833
v -0.546352 0.285317 -0.946311
v -0.378647 0.176336 -0.655837
v -0.378647 -0.176336 -0.655837
v -0.546352 -0.285317 -0.946311
v -1.221600 -0.000000 -0.444627
v -1.026807 0.285317 -0.373728
v -0.711624 0.176336 -0.259010
v -0.711624 -0.176336 -0.259010
v -1.026807 -0.285317 -0.373728
v -1.221600 0.000000 0.444626
v -1.026807 0.285317 0.373727
v -0.711624 0.176336 0.259010
v -0.711624 -0.176336 0.259010
v -1.026807 -0.285317 0.373727
v -0.650000 0.000000 1.125833
v -0.546352 0.285317 0.946311
v -0.378647 0.176336 0.655837
v -0.378647 -0.176336 0.655837
v -0.546352 -0.285317 0.946311
v 0.225743 0.000000 1.280250
v 0.189746 0.285317 1.076104
v 0.131503 0.176336 0.745790
v 0.131503 -0.176336 0.745790
v 0.189746 -0.285317 1.076104
v 0.995858 0.000000 0.835624
v 0.837061 0.285317 0.702377
v 0.580122 0.176336 0.486780
v 0.580122 -0.176336 0.486780
v 0.837061 -0.285317 0.702377
vn 0.7080 0.6575 0.2577
vn 0.7080 0.6575 -0.2577
vn 0.7080 -0.6575 -0.2577
vn 0.7080 -0.6575 0.2577
vn 0.3767 0.6575 -0.6525
vn 0.3767 -0.6575 -0.6525
vn -0.1308 0.6575 0.7420
vn 0.3767 0.6575 0.6525
vn 0.3767 -0.6575 0.6525
vn -0.1308 -0.6575 0.7420
vn -0.5772 0.6575 -0.4843
vn -0.7535 0.6575 -0.0000
vn -0.7535 -0.6575 -0.0000
vn -0.5772 -0.6575 -0.4843
vn -0.1308 0.6575 -0.7420
vn -0.1308 -0.6575 -0.7420
vn -0.5772 0.6575 0.4843
vn -0.5772 -0.6575 0.4843
vn -0.3917 0.9090 -0.1426
vn -0.3917 0.9090 0.1425
vn -0.2084 0.9090 0.3609
vn 0.0724 0.9090 0.4105
vn -0.3917 -0.9090 0.1425
vn -0.3917 -0.9090 -0.1425
vn 0.4168 -0.9090 -0.0000
vn 0.3193 -0.9090 0.2679
vn -0.2084 -0.9090 0.3609
vn 0.3193 0.9090 0.2679
vn 0.4168 0.9090 -0.0000
vn 0.3193 0.9090 -0.2679
vn 0.0724 -0.9090 0.4105
vn -0.2084 -0.9090 -0.3609
vn 0.0724 -0.9090 -0.4105
vn 0.3193 -0.9090 -0.2679
vn 0.0724 0.9090 -0.4105
vn -0.2084 0.9090 -0.3609
vn -0.9397 -0.0000 -0.3420
vn -0.9397 -0.0000 0.3420
vn 0.7660 -0.0000 -0.6428
vn 1.0000 -0.0000 -0.0000
vn 0.7660 -0.0000 0.6428
vn -0.5000 -0.0000 0.8660
vn 0.1736 -0.0000 0.9848
vn 0.1736 -0.0000 -0.9848
vn -0.5000 -0.0000 -0.8660
vt 0.000000 0.000000
vt 0.111111 0.000000
vt 0.111111 0.200000
vt 0.000000 0.200000
vt 0.222222 0.000000
vt 0.222222 0.200000
vt 0.777778 0.000000
vt 0.888889 0.000000
vt 0.888889 0.200000
vt 0.777778 0.200000
vt 0.444444 0.000000
vt 0.555556 0.000000
vt 0.555556 0.200000
vt 0.444444 0.200000
vt 0.333333 0.000000
vt 0.333333 0.200000
vt 0.666667 0.000000
vt 0.666667 0.200000
vt 1.000000 0.000000
vt 1.000000 0.200000
vt 0.000000 0.800000
vt 0.111111 0.800000
vt 0.111111 1.000000
vt 0.000000 1.000000
vt 0.222222 0.800000
vt 0.333333 0.800000
vt 0.333333 1.000000
vt 0.222222 1.000000
vt 0.111111 0.400000
vt 0.000000 0.400000
vt 0.555556 0.400000
vt 0.444444 0.400000
vt 0.222222 0.400000
vt 0.444444 0.800000
vt 0.555556 0.800000
vt 0.555556 1.000000
vt 0.444444 1.000000
vt 0.666667 0.800000
vt 0.666667 1.000000
vt 0.333333 0.400000
vt 0.888889 0.400000
vt 0.777778 0.400000
vt 1.000000 0.400000
vt 0.666667 0.400000
vt 0.777778 0.800000
vt 0.777778 1.000000
vt 0.888889 0.800000
vt 0.888889 1.000000
vt 1.000000 0.800000
vt 1.000000 1.000000
vt 0.000000 0.600000
vt 0.111111 0.600000
vt 0.666667 0.600000
vt 0.555556 0.600000
vt 0.444444 0.600000
vt 0.222222 0.600000
vt 0.333333 0.600000
vt 0.777778 0.600000
vt 0.888889 0.600000
vt 1.000000 0.600000
s 1
f 23/1/1 28/2/2 29/3/3 24/4/4
f 28/2/2 33/5/5 34/6/6 29/3/3
f 13/7/7 18/8/8 19/9/9 14/10/10
f 43/11/11 3/12/12 4/13/13 44/14/14
f 38/15/15 43/11/11 44/14/14 39/16/16
f 3/12/12 8/17/17 9/18/18 4/13/13
f 33/5/5 38/15/15 39/16/16 34/6/6
f 8/17/17 13/7/7 14/10/10 9/18/18
f 18/8/8 23/19/1 24/20/4 19/9/9
f 22/21/19 27/22/20 28/23/2 23/24/1
f 32/25/21 37/26/22 38/27/15 33/28/5
f 24/4/4 29/3/3 30/29/23 25/30/24
f 44/14/14 4/13/13 5/31/25 45/32/26
f 29/3/3 34/6/6 35/33/27 30/29/23
f 42/34/28 2/35/29 3/36/12 43/37/11
f 2/35/29 7/38/30 8/39/17 3/36/12
f 27/22/20 32/25/21 33/28/5 28/23/2
f 34/6/6 39/16/16 40/40/31 35/33/27
f 14/10/10 19/9/9 20/41/32 15/42/33
f 39/16/16 44/14/14 45/32/26 40/40/31
f 19/9/9 24/20/4 25/43/24 20/41/32
f 9/18/18 14/10/10 15/42/33 10/44/34
f 7/38/30 12/45/35 13/46/7 8/39/17
f 4/13/13 9/18/18 10/44/34 5/31/25
f 37/26/22 42/34/28 43/37/11 38/27/15
f 12/45/35 17/47/36 18/48/8 13/46/7
f 17/47/36 22/49/19 23/50/1 18/48/8
f 21/51/37 26/52/38 27/22/20 22/21/19
f 5/31/25 10/44/34 6/53/39 1/54/40
f 41/55/41 1/54/40 2/35/29 42/34/28
f 26/52/38 31/56/42 32/25/21 27/22/20
f 25/30/24 30/29/23 26/52/38 21/51/37
f 45/32/26 5/31/25 1/54/40 41/55/41
f 35/33/27 40/40/31 36/57/43 31/56/42
f 30/29/23 35/33/27 31/56/42 26/52/38
f 36/57/43 41/55/41 42/34/28 37/26/22
f 6/53/39 11/58/44 12/45/35 7/38/30
f 16/59/45 21/60/37 22/49/19 17/47/36
f 10/44/34 15/42/33 11/58/44 6/53/39
f 1/54/40 6/53/39 7/38/30 2/35/29
f 20/41/32 25/43/24 21/60/37 16/59/45
f 40/40/31 45/32/26 41/55/41 36/57/43
f 31/56/42 36/57/43 37/26/22 32/25/21
f 11/58/44 16/59/45 17/47/36 12/45/35
f 15/42/33 20/41/32 16/59/45 11/58/44
